<?xml version="1.0" standalone="no"?>
<!DOCTYPE svg PUBLIC "-//W3C//DTD SVG 20010904//EN"
 "http://www.w3.org/TR/2001/REC-SVG-20010904/DTD/svg10.dtd">
<svg version="1.0" xmlns="http://www.w3.org/2000/svg"
 width="1173.000000pt" height="1173.000000pt" viewBox="0 0 1173.000000 1173.000000"
 preserveAspectRatio="xMidYMid meet">
<metadata>
Created by potrace 1.13, written by Peter Selinger 2001-2015
</metadata>
<g transform="translate(0.000000,1173.000000) scale(0.100000,-0.100000)"
fill="#000000" stroke="none">
<path d="M4680 11334 c-1013 -34 -1753 -94 -2410 -195 -873 -135 -1385 -311
-1493 -514 -19 -35 -22 -60 -25 -210 -3 -141 3 -243 37 -600 143 -1516 210
-2511 242 -3595 13 -438 7 -1586 -10 -1860 -44 -714 -108 -1277 -238 -2105
-31 -198 -56 -382 -56 -410 -1 -127 57 -248 173 -366 893 -907 5127 -1219
7685 -568 724 185 1217 448 1355 725 l35 69 3 193 c3 172 0 224 -33 492 -20
166 -35 307 -33 315 3 16 523 -720 634 -898 119 -189 352 -676 369 -770 7 -37
8 -37 44 -31 79 13 86 23 64 84 -11 30 -83 421 -207 1125 -163 922 -283 1727
-345 2320 -57 530 -81 914 -88 1400 -13 910 61 1492 306 2383 27 101 48 189
46 195 -2 7 -9 82 -15 167 -38 548 -220 1078 -592 1725 -123 214 -177 283
-272 347 -404 276 -1581 478 -3281 564 -286 14 -1625 27 -1895 18z m1220 -54
c239 -6 577 -17 750 -25 1765 -85 3061 -341 3236 -641 23 -39 26 -53 21 -100
-17 -165 -197 -344 -496 -493 -657 -329 -1790 -547 -3241 -623 -303 -15 -1277
-15 -1580 0 -944 50 -1720 153 -2366 316 -824 208 -1331 499 -1370 788 -8 60
-1 86 36 134 169 211 859 396 1940 519 560 64 1246 107 1955 124 510 12 641
12 1115 1z m4173 -976 c323 -570 504 -1085 547 -1564 18 -205 14 -254 -31
-418 -164 -594 -252 -1086 -291 -1637 -16 -232 -16 -963 1 -1245 56 -952 189
-1945 471 -3523 43 -240 67 -394 61 -400 -6 -6 -33 37 -70 109 -82 160 -203
351 -407 639 -207 292 -484 693 -490 708 -5 16 -94 808 -149 1337 -218 2096
-218 3069 0 4605 79 555 225 1419 250 1479 9 20 21 36 28 33 7 -2 42 -57 80
-123z m-8983 -233 c706 -471 2375 -771 4290 -771 1283 0 2468 134 3339 376
136 38 417 130 484 159 12 5 17 3 17 -9 0 -22 17 -20 23 3 3 12 57 44 161 94
153 74 277 149 366 220 25 20 49 32 53 28 5 -5 -9 -114 -31 -242 -163 -945
-247 -1581 -299 -2274 -25 -327 -25 -1342 0 -1735 52 -817 148 -1788 314
-3170 48 -404 66 -589 69 -715 3 -93 5 -197 6 -231 3 -87 -33 -157 -136 -260
-446 -448 -1791 -771 -3596 -866 -303 -15 -1277 -15 -1580 0 -1470 77 -2601
297 -3262 633 -351 179 -520 390 -465 580 9 30 19 107 21 171 3 64 14 172 25
240 104 653 183 1344 221 1933 33 516 38 1622 10 2275 -47 1120 -117 2090
-244 3415 -18 187 -31 343 -29 347 2 4 36 -25 76 -65 40 -40 115 -101 167
-136z"/>
<path d="M4865 10884 c-309 -13 -669 -48 -880 -85 -333 -60 -533 -132 -579
-209 -22 -38 -20 -66 8 -125 61 -132 291 -255 636 -340 74 -18 185 -41 245
-50 61 -10 115 -21 120 -26 15 -11 186 -27 445 -40 279 -14 725 -7 950 16 552
55 995 185 1171 343 53 47 99 127 99 170 0 105 -186 186 -595 261 -134 25
-320 46 -620 71 -119 11 -847 21 -1000 14z m455 -46 c0 -6 -3 -9 -6 -5 -4 3
-13 -1 -21 -9 -9 -8 -22 -13 -29 -10 -8 3 -14 1 -14 -5 0 -6 -4 -7 -10 -4 -5
3 -10 1 -10 -4 0 -6 -8 -11 -17 -11 -9 0 -24 -6 -32 -14 -9 -8 -32 -15 -51
-16 -52 -3 -62 -1 -55 11 4 6 1 9 -6 8 -8 -1 -22 1 -33 6 -11 5 -21 3 -26 -4
-5 -10 -9 -9 -13 3 -4 9 -10 16 -14 15 -32 -5 -53 3 -53 20 0 23 24 26 248 29
102 1 142 -1 142 -10z"/>
<path d="M2273 10670 c-119 -60 -204 -125 -244 -188 -32 -51 -36 -74 -15 -91
12 -10 16 -6 25 22 28 83 148 177 324 254 56 25 104 47 106 49 2 2 -19 4 -46
4 -41 0 -70 -10 -150 -50z"/>
<path d="M7385 10662 c82 -44 141 -97 151 -136 10 -41 -17 -90 -74 -131 -44
-31 -84 -85 -63 -85 20 0 130 81 152 111 32 46 33 121 2 165 -38 52 -120 101
-183 108 l-55 5 70 -37z"/>
<path d="M2668 10640 c-59 -39 -135 -121 -154 -165 -31 -75 -13 -153 52 -225
41 -46 69 -63 129 -78 39 -11 40 -11 16 6 -94 65 -156 138 -167 199 -13 69 47
158 160 238 23 17 27 25 20 38 -9 16 -14 15 -56 -13z"/>
<path d="M7705 10609 c59 -44 104 -99 110 -133 9 -47 -14 -91 -89 -170 -35
-36 -58 -66 -52 -66 25 1 123 80 154 124 38 58 41 101 11 164 -24 48 -75 87
-129 97 l-35 6 30 -22z"/>
<path d="M2721 10527 c-57 -117 11 -215 214 -312 162 -78 432 -154 686 -195
74 -11 175 -28 224 -36 138 -23 406 -51 665 -71 329 -24 1215 -24 1540 0 249
19 550 51 668 72 l77 13 -90 -2 c-49 -2 -142 -8 -205 -15 -183 -18 -697 -42
-1055 -48 -1218 -21 -2384 163 -2645 417 -58 57 -71 99 -45 154 17 35 15 66
-4 66 -5 0 -19 -19 -30 -43z"/>
<path d="M8040 10536 c0 -3 11 -22 25 -42 53 -78 39 -158 -42 -239 -78 -78
-201 -142 -433 -226 l-105 -38 60 5 c103 10 176 33 301 94 190 94 294 202 294
308 0 46 -19 100 -41 118 -16 13 -59 28 -59 20z"/>
<path d="M8406 10387 c11 -76 -45 -162 -147 -227 -54 -35 -59 -45 -29 -53 24
-6 125 64 163 115 64 83 79 208 26 208 -16 0 -18 -6 -13 -43z"/>
<path d="M3345 8320 c-137 -22 -303 -86 -427 -165 -237 -153 -427 -379 -579
-690 -113 -233 -194 -515 -231 -805 -19 -153 -16 -543 5 -700 105 -762 500
-1368 1020 -1564 121 -45 212 -61 362 -61 150 0 241 16 362 61 520 196 913
798 1020 1564 12 91 17 192 17 370 0 265 -13 397 -60 610 -59 262 -176 549
-307 748 -215 328 -478 531 -797 614 -87 22 -293 32 -385 18z m-220 -198 c-6
-5 -41 -30 -80 -57 -108 -75 -260 -234 -344 -359 -214 -321 -311 -651 -311
-1057 1 -327 62 -597 196 -859 215 -422 555 -698 952 -774 65 -12 73 -12 67 1
-58 154 -2 311 138 385 60 32 184 32 244 0 105 -55 157 -143 158 -263 l0 -76
40 14 c93 33 244 124 364 220 l33 27 -50 -100 c-162 -322 -423 -590 -681 -699
-133 -56 -201 -69 -356 -69 -155 0 -223 13 -356 69 -253 106 -520 378 -673
684 -181 360 -267 773 -252 1206 16 482 143 901 380 1250 71 105 264 304 351
362 85 57 214 125 180 95z m826 -238 c112 -33 199 -109 253 -223 28 -60 31
-75 31 -166 0 -91 -3 -106 -31 -166 -54 -114 -141 -190 -253 -223 -186 -54
-377 37 -465 223 -28 60 -31 75 -31 166 0 91 3 106 31 165 17 36 46 83 64 104
100 114 259 162 401 120z m-617 -1253 c26 -27 31 -39 31 -81 0 -43 -5 -54 -33
-82 -29 -29 -39 -33 -87 -33 -48 0 -58 4 -87 33 -28 28 -33 39 -33 81 0 52 25
92 70 112 40 18 105 3 139 -30z"/>
<path d="M6665 8240 c-137 -22 -303 -86 -427 -165 -237 -153 -427 -379 -579
-690 -113 -233 -194 -515 -231 -805 -19 -153 -16 -543 5 -700 105 -762 500
-1368 1020 -1564 121 -45 212 -61 362 -61 150 0 241 16 362 61 520 196 913
798 1020 1564 12 91 17 192 17 370 0 265 -13 397 -60 610 -59 262 -176 549
-307 748 -215 328 -478 531 -797 614 -87 22 -293 32 -385 18z m-210 -178 c-6
-5 -41 -30 -80 -57 -108 -75 -260 -234 -344 -359 -160 -241 -252 -483 -295
-777 -20 -136 -21 -419 -1 -558 89 -626 471 -1142 971 -1311 48 -17 89 -30 90
-30 1 0 -5 21 -13 48 -37 118 12 276 108 352 115 91 263 91 378 0 96 -76 145
-234 108 -352 -8 -27 -12 -48 -8 -48 4 0 47 13 95 30 138 46 274 124 415 237
l33 27 -50 -100 c-78 -156 -182 -303 -306 -432 -61 -64 -114 -116 -118 -114
-4 1 -15 -9 -24 -23 -9 -14 -20 -23 -24 -20 -4 3 -11 -2 -14 -11 -3 -8 -10
-13 -15 -10 -5 3 -12 -1 -15 -10 -3 -8 -10 -13 -15 -10 -5 3 -11 -1 -15 -9 -3
-8 -12 -12 -20 -9 -8 3 -19 -3 -25 -14 -12 -23 -144 -81 -246 -108 -98 -26
-322 -26 -420 0 -193 52 -348 146 -516 315 -173 174 -287 354 -392 621 -58
148 -110 339 -102 377 5 22 4 25 -5 13 -9 -12 -10 -6 -5 25 4 25 2 35 -3 26
-12 -17 -25 66 -17 105 5 23 4 26 -5 14 -9 -12 -10 -3 -6 40 5 41 4 51 -5 40
-8 -11 -9 4 -4 60 4 54 3 71 -5 60 -16 -23 -5 342 15 495 3 22 7 56 10 75 12
93 60 290 101 415 68 205 146 366 258 530 71 105 264 304 351 362 85 57 214
125 180 95z m776 -219 c151 -71 239 -226 226 -398 -19 -255 -247 -427 -477
-359 -285 85 -374 458 -162 677 113 117 270 147 413 80z m-704 -1107 c24 -21
28 -32 28 -76 0 -44 -4 -55 -28 -76 -15 -13 -39 -24 -52 -24 -13 0 -37 11 -52
24 -24 21 -28 32 -28 76 0 44 4 55 28 76 15 13 39 24 52 24 13 0 37 -11 52
-24z"/>
<path d="M5585 4319 c-33 -4 -273 -12 -534 -18 -260 -6 -476 -12 -478 -15 -8
-7 17 -385 32 -491 46 -325 154 -494 360 -565 185 -64 401 -16 534 118 94 94
151 236 186 462 18 116 41 480 32 503 -7 19 -30 20 -132 6z m-560 -324 c72 -3
216 -8 320 -11 105 -4 204 -7 220 -8 34 -1 34 2 14 -149 -46 -352 -187 -516
-444 -517 -150 0 -281 75 -343 197 -44 85 -80 250 -96 441 l-6 64 103 -6 c56
-3 161 -8 232 -11z"/>
</g>
</svg>
