<?xml version="1.0" standalone="no"?>
<!DOCTYPE svg PUBLIC "-//W3C//DTD SVG 20010904//EN"
 "http://www.w3.org/TR/2001/REC-SVG-20010904/DTD/svg10.dtd">
<svg version="1.0" xmlns="http://www.w3.org/2000/svg"
 width="1089.000000pt" height="1089.000000pt" viewBox="0 0 1089.000000 1089.000000"
 preserveAspectRatio="xMidYMid meet">
<metadata>
Created by potrace 1.11, written by Peter Selinger 2001-2013
</metadata>
<g transform="translate(0.000000,1089.000000) scale(0.100000,-0.100000)"
fill="#000000" stroke="none">
<path d="M4469 10856 c-2 -2 -117 -7 -255 -10 -138 -4 -276 -9 -305 -11 -30
-2 -112 -6 -184 -10 -136 -7 -190 -10 -340 -20 -243 -16 -289 -20 -510 -40
-33 -3 -78 -8 -100 -10 -22 -2 -67 -7 -100 -10 -33 -3 -74 -8 -92 -11 -17 -2
-58 -7 -90 -9 -32 -3 -69 -7 -83 -10 -14 -2 -54 -7 -90 -11 -36 -3 -67 -7 -70
-9 -3 -2 -34 -6 -69 -10 -34 -4 -70 -8 -79 -10 -31 -5 -97 -16 -127 -19 -59
-8 -282 -47 -375 -67 -52 -11 -108 -22 -125 -25 -16 -3 -48 -10 -70 -16 -22
-5 -51 -12 -65 -15 -14 -2 -83 -20 -154 -39 -442 -121 -665 -250 -697 -403
-11 -52 -8 -410 4 -496 3 -16 8 -61 11 -100 4 -38 9 -86 11 -105 7 -60 15
-152 20 -220 3 -36 7 -81 10 -100 2 -19 7 -69 10 -110 4 -41 8 -91 10 -110 2
-19 6 -73 10 -120 3 -47 8 -96 10 -110 2 -14 7 -65 10 -115 3 -49 8 -101 10
-115 2 -14 6 -65 10 -115 9 -120 18 -244 30 -375 2 -30 7 -93 10 -140 5 -78 7
-115 20 -270 2 -30 7 -104 10 -165 3 -60 8 -130 10 -155 2 -25 7 -101 11 -170
3 -69 8 -143 9 -165 1 -22 6 -105 9 -185 4 -80 9 -176 11 -215 2 -38 7 -144
10 -235 4 -91 8 -201 10 -245 23 -487 23 -1465 0 -1965 -7 -162 -15 -305 -20
-355 -3 -27 -7 -86 -10 -130 -12 -167 -23 -294 -39 -445 -4 -36 -9 -87 -12
-115 -3 -27 -7 -61 -9 -75 -2 -14 -6 -52 -10 -85 -3 -33 -8 -71 -10 -85 -2
-14 -9 -65 -15 -115 -6 -49 -13 -105 -16 -122 -2 -18 -6 -48 -8 -65 -20 -152
-25 -183 -31 -218 -2 -14 -6 -41 -9 -60 -10 -73 -47 -319 -50 -336 -2 -11 -18
-113 -36 -227 -35 -226 -36 -202 10 -349 42 -131 163 -261 361 -385 82 -52
262 -142 354 -177 39 -15 79 -31 90 -37 86 -40 561 -181 763 -225 195 -42 266
-57 362 -75 138 -25 139 -26 250 -44 52 -8 106 -17 120 -19 31 -5 113 -17 160
-22 19 -3 46 -7 60 -9 14 -3 50 -7 80 -10 30 -3 66 -8 80 -10 14 -3 50 -7 80
-10 30 -3 71 -8 90 -10 19 -2 64 -7 100 -10 36 -3 85 -8 110 -11 44 -4 68 -7
215 -18 432 -34 831 -49 1330 -49 294 0 693 8 845 18 30 2 111 6 180 10 69 4
141 8 160 10 19 2 80 6 134 10 55 4 107 8 116 10 9 2 59 6 110 10 51 4 100 8
109 10 9 2 45 6 81 9 70 8 369 44 410 50 14 3 45 8 70 12 25 3 59 8 75 10 27
2 121 18 275 44 53 10 75 14 130 25 14 2 39 7 55 10 17 2 73 14 125 25 52 12
114 25 136 30 23 5 79 19 125 31 46 11 89 22 94 23 85 21 199 54 347 101 572
184 931 421 1019 671 16 45 19 83 19 246 0 106 -4 220 -10 253 -5 33 -11 85
-15 115 -3 30 -7 71 -10 90 -2 19 -7 55 -9 80 -3 25 -8 61 -11 80 -2 19 -7 64
-11 100 -3 36 -9 69 -12 74 -3 5 -1 6 5 3 5 -3 33 -41 63 -84 80 -117 139
-202 343 -493 207 -295 301 -447 405 -656 87 -174 188 -408 197 -457 6 -31 11
-36 29 -32 11 3 34 7 50 9 16 3 30 6 31 8 9 9 7 39 -8 88 -8 30 -18 73 -21 95
-3 22 -8 51 -11 65 -3 14 -12 63 -20 110 -22 124 -24 137 -41 230 -9 47 -18
96 -20 110 -3 14 -18 97 -34 185 -42 236 -82 466 -86 500 -2 17 -9 54 -15 84
-6 30 -12 64 -14 75 -3 23 -71 440 -81 496 -4 19 -8 49 -10 65 -2 17 -8 53
-13 80 -5 28 -13 73 -17 100 -4 28 -8 57 -9 65 -2 8 -6 35 -9 60 -4 25 -11 72
-16 105 -9 56 -13 81 -26 175 -2 19 -6 46 -9 60 -2 14 -6 45 -9 70 -3 25 -8
54 -10 65 -2 11 -7 49 -11 85 -4 36 -9 72 -10 80 -2 8 -6 44 -10 80 -4 36 -8
72 -10 80 -2 8 -6 44 -9 80 -4 36 -9 76 -11 90 -3 14 -7 52 -10 85 -7 84 -14
154 -20 195 -2 19 -7 69 -10 110 -3 41 -8 95 -11 120 -6 59 -11 124 -19 235
-3 50 -8 113 -10 140 -28 374 -28 1225 0 1530 3 28 7 77 10 110 27 302 100
721 181 1040 14 55 27 107 29 115 5 22 61 232 99 369 8 30 13 57 11 61 -2 4
-7 54 -10 111 -3 57 -8 122 -10 144 -3 22 -7 63 -10 90 -16 135 -56 326 -101
475 -29 98 -91 281 -109 325 -7 17 -20 48 -28 70 -30 80 -64 154 -149 325 -88
176 -114 225 -178 335 -19 33 -44 76 -55 96 -64 113 -81 139 -92 139 -7 0 -13
4 -13 10 0 18 -64 82 -123 122 -119 81 -323 161 -582 230 -60 16 -121 31 -135
34 -14 3 -41 9 -60 14 -19 5 -46 11 -60 14 -14 2 -83 16 -155 30 -185 37 -516
89 -700 110 -27 4 -66 8 -85 11 -33 4 -73 9 -175 20 -25 3 -65 7 -90 10 -104
12 -133 14 -200 20 -38 3 -86 8 -105 10 -36 4 -161 13 -265 20 -33 2 -91 7
-130 10 -73 6 -169 12 -345 20 -58 2 -150 7 -205 10 -55 4 -163 9 -240 11
-175 7 -1580 16 -1586 10z"/>
</g>
</svg>
