<svg id="Layer_1" data-name="Layer 1" xmlns="http://www.w3.org/2000/svg" xmlns:xlink="http://www.w3.org/1999/xlink" viewBox="0 0 261.82 261.55"><defs><style>.cls-1{fill:none;}.cls-2{fill:url(#linear-gradient);}.cls-3{fill:#d3d3d3;}.cls-4{fill:url(#linear-gradient-2);}.cls-5{fill:#fff;}.cls-6{fill:url(#linear-gradient-3);}</style><linearGradient id="linear-gradient" x1="13.12" y1="141.96" x2="230.24" y2="141.96" gradientUnits="userSpaceOnUse"><stop offset="0.14" stop-color="#d3d3d3"/><stop offset="0.14" stop-color="#d4d4d4"/><stop offset="0.21" stop-color="#e7e7e7"/><stop offset="0.28" stop-color="#f5f5f5"/><stop offset="0.37" stop-color="#fdfdfd"/><stop offset="0.54" stop-color="#fff"/><stop offset="0.66" stop-color="#fcfcfc"/><stop offset="0.76" stop-color="#f1f1f1"/><stop offset="0.85" stop-color="#e0e0e0"/><stop offset="0.9" stop-color="#d3d3d3"/></linearGradient><linearGradient id="linear-gradient-2" x1="74.25" y1="22.36" x2="162.97" y2="22.36" gradientUnits="userSpaceOnUse"><stop offset="0.15" stop-color="#85827b"/><stop offset="0.15" stop-color="#838079"/><stop offset="0.32" stop-color="#605953"/><stop offset="0.46" stop-color="#4a413b"/><stop offset="0.54" stop-color="#423832"/><stop offset="0.63" stop-color="#5c554e"/><stop offset="0.75" stop-color="#7a756f"/><stop offset="0.81" stop-color="#85827b"/></linearGradient><linearGradient id="linear-gradient-3" x1="116.83" y1="172.17" x2="116.83" y2="193.68" gradientUnits="userSpaceOnUse"><stop offset="0" stop-color="#ff3a42"/><stop offset="0.23" stop-color="#ff3d45"/><stop offset="0.42" stop-color="#ff454f"/><stop offset="0.6" stop-color="#ff5261"/><stop offset="0.76" stop-color="#ff6679"/><stop offset="0.92" stop-color="#ff7f98"/><stop offset="1" stop-color="#ff8daa"/></linearGradient></defs><title>Loo</title><path class="cls-1" d="M-.52.22H261.3V261.78H-.52ZM255.3,249c2.62-.24,2.62-.24,2-2.77,0-.15,0-.32-.07-.47-1.38-7.67-2.77-15.33-4.13-23-3.35-19-6.54-38-8.64-57.11a352.51,352.51,0,0,1-2.35-42.13,180.45,180.45,0,0,1,2-26,218.47,218.47,0,0,1,5.62-24.88,16.53,16.53,0,0,0,.74-5.37,82.26,82.26,0,0,0-4.22-21.94c-2.94-8.85-7.31-17-12-25a16.23,16.23,0,0,0-6.9-6.53,67,67,0,0,0-14.6-4.91,199.65,199.65,0,0,0-25.37-4.3c-8.18-.86-16.37-1.78-24.58-2.32-9.49-.62-19-1-28.52-1.2Q109.87.46,85.42,2c-6.42.39-12.85.81-19.24,1.49C59,4.21,51.83,5.2,44.68,6.24a127.69,127.69,0,0,0-20.88,4.7A33.7,33.7,0,0,0,14,15.51c-1.61,1.18-2.87,2.65-2.93,4.72a76.22,76.22,0,0,0,.08,8.27c.5,6.34,1.23,12.65,1.77,19,1,11.35,2,22.7,2.71,34.07.85,13,1.7,26.1,2,39.17.35,13.95.42,27.92,0,41.86-.31,10.61-1.26,21.23-2.45,31.79-1.22,10.87-3.06,21.68-4.62,32.51a9.22,9.22,0,0,0-.2,2.73,15.28,15.28,0,0,0,6,9.74c4.85,3.8,10.39,6.24,16.13,8.29,12.33,4.39,25.11,6.82,38,8.61a369.88,369.88,0,0,0,49.75,3.27,381,381,0,0,0,50.13-3,224,224,0,0,0,32.08-6.27c7-2,13.88-4.34,20.2-8a24.88,24.88,0,0,0,7.67-6.43,10.77,10.77,0,0,0,2.2-6.44,102.15,102.15,0,0,0-1.16-15.89c-.25-1.83-.41-3.66-.61-5.5a1.74,1.74,0,0,1,.78.68c3.19,4.55,6.31,9.15,9.57,13.65A105.45,105.45,0,0,1,255.3,249Z" transform="translate(0.52 -0.22)"/><path d="M255.3,249a105.45,105.45,0,0,0-14.16-26.67c-3.25-4.5-6.38-9.1-9.57-13.65a1.74,1.74,0,0,0-.78-.68c.2,1.83.37,3.67.61,5.5a102.15,102.15,0,0,1,1.16,15.89,10.77,10.77,0,0,1-2.2,6.44,24.88,24.88,0,0,1-7.67,6.43c-6.33,3.7-13.19,6.06-20.2,8a224,224,0,0,1-32.08,6.27,381,381,0,0,1-50.13,3,369.88,369.88,0,0,1-49.75-3.27c-12.92-1.78-25.7-4.22-38-8.61-5.74-2-11.28-4.48-16.13-8.29a15.28,15.28,0,0,1-6-9.74,9.22,9.22,0,0,1,.2-2.73c1.56-10.84,3.4-21.64,4.62-32.51,1.18-10.56,2.14-21.18,2.45-31.79.4-13.94.34-27.91,0-41.86-.33-13.07-1.18-26.12-2-39.17-.74-11.37-1.75-22.72-2.71-34.07-.53-6.33-1.26-12.65-1.77-19A76.22,76.22,0,0,1,11,20.23c.06-2.07,1.32-3.54,2.93-4.72a33.7,33.7,0,0,1,9.84-4.57,127.69,127.69,0,0,1,20.88-4.7c7.15-1,14.31-2,21.5-2.79C72.57,2.77,79,2.34,85.42,2Q109.86.48,134.34,1c9.51.21,19,.58,28.52,1.2,8.21.53,16.39,1.46,24.58,2.32a199.65,199.65,0,0,1,25.37,4.3,67,67,0,0,1,14.6,4.91,16.23,16.23,0,0,1,6.9,6.53c4.68,8,9.05,16.16,12,25a82.26,82.26,0,0,1,4.22,21.94,16.53,16.53,0,0,1-.74,5.37,218.47,218.47,0,0,0-5.62,24.88,180.45,180.45,0,0,0-2,26,352.51,352.51,0,0,0,2.35,42.13c2.1,19.16,5.3,38.15,8.64,57.11,1.35,7.67,2.75,15.33,4.13,23,0,.16,0,.32.07.47C257.92,248.75,257.92,248.75,255.3,249ZM13.33,26.76c.37,3.58.76,7.27,1.12,11q.63,6.52,1.2,13,.62,7,1.2,14,.51,6.23,1,12.47.38,5.17.72,10.35.39,6.07.72,12.15c.18,3.18.35,6.36.47,9.54.19,4.78.33,9.56.49,14.34.08,2.31.21,4.62.2,6.93,0,8.83-.06,17.66-.22,26.49-.11,6.13-.44,12.26-.71,18.39-.1,2.22-.31,4.44-.52,6.65-.28,2.92-.6,5.83-.91,8.75-.26,2.4-.49,4.81-.8,7.21-.42,3.22-.9,6.43-1.36,9.64S15,213.86,14.54,217c-.24,1.64-.55,3.28-.74,4.92-.22,1.91-.34,3.83-.49,5.74a14.1,14.1,0,0,0-.14,3.05c.43,2.93,2.43,4.89,4.54,6.67a43.16,43.16,0,0,0,11.62,6.55,123,123,0,0,0,24,7c7.69,1.46,15.46,2.54,23.21,3.65,4.35.62,8.74,1,13.12,1.44,3.56.33,7.13.56,10.71.72,4.86.22,9.72.49,14.58.46,8,0,16-.27,24.06-.44,2.59-.05,5.18-.15,7.77-.25q2-.08,3.93-.26c3.28-.3,6.55-.62,9.83-.94,2.57-.25,5.14-.42,7.69-.76,3.65-.48,7.29-1,10.91-1.66,4.87-.86,9.75-1.7,14.57-2.79a115.14,115.14,0,0,0,21.68-6.83c4.53-2,9-4.24,12.34-8,2-2.21,3.19-4.68,2.19-7.76a3.89,3.89,0,0,1-.11-1.3,44.64,44.64,0,0,0,.18-4.77c-.17-2.33-.62-4.64-.89-7-.51-4.38-1-8.76-1.47-13.14-.61-5.2-1.3-10.4-1.88-15.6-.54-4.85-1-9.72-1.47-14.58-.54-5.17-1.15-10.34-1.65-15.51-.46-4.74-.84-9.5-1.21-14.25q-.42-5.41-.72-10.84c-.2-3.7-.49-7.4-.46-11.11.06-9.06.18-18.13.48-27.18.17-5,.72-10.07,1.17-15.09.34-3.83.73-7.67,1.23-11.48.55-4.21,1.21-8.4,1.88-12.59,1.09-6.82,2.22-13.63,3.33-20.44.19-1.18.36-2.37.53-3.55a7.46,7.46,0,0,0-2.05,1.24,51,51,0,0,1-10.62,5.93,11.65,11.65,0,0,0-1.57,1,7.43,7.43,0,0,0-1.28.16c-4.74,1.46-9.43,3.14-14.23,4.39a199.39,199.39,0,0,1-27.42,5.08c-5.55.64-11.09,1.32-16.65,1.89-3.44.35-6.89.55-10.34.72-4.42.22-8.84.46-13.26.47-7.31,0-14.62-.09-21.93-.23-3.74-.07-7.48-.24-11.22-.48q-7.78-.5-15.55-1.2c-3.75-.33-7.5-.7-11.23-1.22-4.31-.61-8.59-1.37-12.88-2.12a164.51,164.51,0,0,1-22.5-5.51,66.56,66.56,0,0,1-16.2-7.25C17.59,30.41,15.54,28.51,13.33,26.76ZM110.54,2.23v.14c-2,.11-4.06.25-6.09.32-4.62.17-9.24.27-13.86.49-3.85.18-7.7.44-11.55.73q-7.13.54-14.25,1.2c-3.83.36-7.67.69-11.48,1.24C48,7.13,42.64,8,37.36,9a80.64,80.64,0,0,0-17.24,5,24.76,24.76,0,0,0-4.81,2.85c-2.22,1.67-2.4,4.47-.68,7.18,2.12,3.34,5.26,5.52,8.62,7.38a90.08,90.08,0,0,0,20.51,7.77,241.24,241.24,0,0,0,34.13,6.23c5.16.62,10.35,1,15.53,1.45,4.36.34,8.74.56,13.11.73,4.15.16,8.3.25,12.45.24,6.19,0,12.38-.13,18.57-.23q3-.05,6.09-.26c4.12-.28,8.24-.62,12.36-.93,2.06-.16,4.13-.27,6.18-.51,3.66-.43,7.32-.89,11-1.41,4.23-.61,8.49-1.16,12.68-2,5.48-1.11,10.94-2.35,16.34-3.79a77.77,77.77,0,0,0,20.13-8c3.17-1.9,6.14-4.06,7.75-7.55,1.08-2.34,1.24-4.43-1.33-6.45a25.34,25.34,0,0,0-8.77-4.25c-4.64-1.35-9.34-2.54-14.08-3.49-5.63-1.13-11.31-2-17-2.83-5.11-.72-10.25-1.2-15.38-1.7-4.11-.4-8.24-.7-12.36-1-4.69-.3-9.38-.52-14.07-.73-3-.13-6-.2-9-.24q-9.35-.15-18.69-.24C116.44,2.21,113.49,2.23,110.54,2.23ZM252.78,236.62H253c0-.33,0-.66-.09-1-.27-1.48-.57-3-.84-4.44-.93-5.26-1.87-10.53-2.78-15.8q-1.17-6.79-2.26-13.6c-.61-3.79-1.18-7.59-1.75-11.39-.63-4.19-1.28-8.38-1.84-12.58-.47-3.58-.83-7.17-1.24-10.75s-.85-6.93-1.16-10.4c-.39-4.23-.73-8.47-1-12.72-.25-4.66-.43-9.32-.48-14,0-4.11.1-8.22.23-12.33.1-3.18.17-6.37.51-9.53.5-4.57,1-9.15,1.91-13.65,1.22-6.3,2.72-12.55,4.17-18.81.73-3.13,1.94-6.16,1.56-9.47-.18-1.54-.35-3.08-.47-4.62a63.62,63.62,0,0,0-3-13.7A114.63,114.63,0,0,0,234.28,25c-.43-.77-.94-1.5-1.58-2.51a16.78,16.78,0,0,0-.79,2.2q-.86,4.49-1.63,9c-.76,4.45-1.52,8.9-2.2,13.36-.78,5.05-1.5,10.11-2.2,15.17-.66,4.79-1.32,9.58-1.88,14.38q-.62,5.32-1,10.67c-.32,5.13-.69,10.26-.7,15.39,0,7.54.24,15.08.44,22.62.1,3.86.31,7.72.48,11.58.06,1.23.15,2.46.26,3.69.31,3.68.63,7.36.94,11,.17,2,.31,4,.51,6.06.29,2.92.63,5.83.93,8.75.26,2.53.48,5.06.75,7.58.29,2.76.62,5.52.93,8.27.27,2.4.52,4.81.79,7.21s.62,5,.88,7.56.53,5.15,2.31,7.44c2.86,3.67,5.38,7.59,8,11.43,3,4.36,6,8.71,8.89,13.14C250,231.49,251.35,234.09,252.78,236.62Z" transform="translate(0.52 -0.22)"/><path class="cls-2" d="M13.33,26.76c2.21,1.76,4.26,3.65,6.56,5.16a66.56,66.56,0,0,0,16.2,7.25,164.51,164.51,0,0,0,22.5,5.51c4.29.75,8.57,1.52,12.88,2.12C75.2,47.33,79,47.7,82.7,48q7.77.69,15.55,1.2c3.73.24,7.48.41,11.22.48,7.31.13,14.62.25,21.93.23,4.42,0,8.84-.25,13.26-.47,3.45-.17,6.91-.38,10.34-.72,5.56-.56,11.1-1.25,16.65-1.89a199.39,199.39,0,0,0,27.42-5.08c4.8-1.24,9.49-2.92,14.23-4.39a7.43,7.43,0,0,1,1.28-.16,11.65,11.65,0,0,1,1.57-1,51,51,0,0,0,10.62-5.93,7.46,7.46,0,0,1,2.05-1.24c-.18,1.18-.34,2.37-.53,3.55-1.11,6.81-2.24,13.62-3.33,20.44-.67,4.19-1.33,8.39-1.88,12.59-.5,3.82-.88,7.65-1.23,11.48-.45,5-1,10.05-1.17,15.09-.3,9.06-.42,18.12-.48,27.18,0,3.7.26,7.41.46,11.11s.44,7.23.72,10.84c.37,4.75.75,9.51,1.21,14.25.5,5.18,1.11,10.34,1.65,15.51.5,4.86.93,9.72,1.47,14.58.58,5.21,1.27,10.4,1.88,15.6.51,4.38,1,8.76,1.47,13.14.27,2.32.72,4.63.89,7a44.64,44.64,0,0,1-.18,4.77,3.89,3.89,0,0,0,.11,1.3c1,3.08-.23,5.55-2.19,7.76-3.38,3.79-7.81,6-12.34,8a115.14,115.14,0,0,1-21.68,6.83c-4.82,1.09-9.7,1.93-14.57,2.79-3.62.64-7.27,1.17-10.91,1.66-2.55.34-5.13.51-7.69.76-3.28.31-6.55.64-9.83.94q-2,.18-3.93.26c-2.59.1-5.18.19-7.77.25-8,.17-16,.41-24.06.44-4.86,0-9.72-.24-14.58-.46-3.57-.16-7.14-.39-10.71-.72-4.38-.4-8.76-.81-13.12-1.44-7.75-1.11-15.52-2.19-23.21-3.65a123,123,0,0,1-24-7,43.16,43.16,0,0,1-11.62-6.55c-2.11-1.78-4.11-3.75-4.54-6.67a14.1,14.1,0,0,1,.14-3.05c.15-1.92.27-3.83.49-5.74.19-1.65.5-3.28.74-4.92q.68-4.64,1.35-9.29c.46-3.21.94-6.42,1.36-9.64.31-2.4.54-4.81.8-7.21.31-2.92.64-5.83.91-8.75.21-2.21.42-4.43.52-6.65.28-6.13.6-12.26.71-18.39.17-8.83.18-17.66.22-26.49,0-2.31-.12-4.62-.2-6.93-.16-4.78-.3-9.56-.49-14.34-.12-3.18-.3-6.36-.47-9.54q-.34-6.07-.72-12.15-.33-5.18-.72-10.35-.46-6.24-1-12.47-.57-7-1.2-14-.58-6.52-1.2-13C14.09,34,13.69,30.34,13.33,26.76Zm97.29,94.37.3,0c-.5-4.19-.91-8.39-1.54-12.55a49.44,49.44,0,0,0-4.08-13.3A50.81,50.81,0,0,0,99,84.91a32,32,0,0,0-10.39-8.78A24.17,24.17,0,0,0,74,73.37,26.25,26.25,0,0,0,66,75.73,33.29,33.29,0,0,0,53.22,86.9,52.84,52.84,0,0,0,45.64,103a66,66,0,0,0-2.47,16.16c-.07,2.3.1,4.61.23,6.91a48.66,48.66,0,0,0,.51,5.66,62.87,62.87,0,0,0,4.18,14.5,44,44,0,0,0,11.13,15.9,27.93,27.93,0,0,0,10,5.84,24.09,24.09,0,0,0,10.37,1,25,25,0,0,0,7.77-2.14A32.51,32.51,0,0,0,98,158.64a48.64,48.64,0,0,0,8.7-15A63.85,63.85,0,0,0,110.61,121.13Zm79.83,2c-.21-2.52-.45-5-.63-7.57a53.13,53.13,0,0,0-2.38-11.83,51.29,51.29,0,0,0-8.75-16.9,32.19,32.19,0,0,0-10.39-8.77,24.14,24.14,0,0,0-14.58-2.76,25.74,25.74,0,0,0-8.06,2.36,31,31,0,0,0-9.92,7.66,48.7,48.7,0,0,0-6,8.59,50.53,50.53,0,0,0-5.4,14.94,93.53,93.53,0,0,0-1.46,12,85.79,85.79,0,0,0,.42,9.74,49.91,49.91,0,0,0,2.37,11.83,51.28,51.28,0,0,0,8.75,16.9,32.82,32.82,0,0,0,10.38,8.78,24,24,0,0,0,14.58,2.74,24.61,24.61,0,0,0,7.64-2.14,32.66,32.66,0,0,0,10.59-8.13A48,48,0,0,0,185.87,147,66.77,66.77,0,0,0,190.44,123.13Zm-60.29,46.32-27.46.79c.1,1.94.17,3.77.28,5.59a48.36,48.36,0,0,0,1.84,12c3.06,9.53,13.6,10.11,19,5.94a13.29,13.29,0,0,0,4.9-8.67c.77-4.56,1.11-9.19,1.58-13.79A8.84,8.84,0,0,0,130.15,169.45Zm85.77,49,.43,0-.15-1.61-.43,0ZM217,231.06l-.48.06.19,1.63.41,0Z" transform="translate(0.52 -0.22)"/><path class="cls-3" d="M110.54,2.23c3,0,5.9,0,8.85,0q9.35.09,18.69.24c3,0,6,.11,9,.24,4.69.21,9.39.43,14.07.73,4.12.26,8.25.57,12.36,1,5.13.5,10.27,1,15.38,1.7,5.69.8,11.37,1.7,17,2.83,4.74.95,9.44,2.14,14.08,3.49a25.34,25.34,0,0,1,8.77,4.25c2.57,2,2.4,4.11,1.33,6.45-1.6,3.49-4.58,5.65-7.75,7.55a77.77,77.77,0,0,1-20.13,8c-5.4,1.44-10.86,2.68-16.34,3.79-4.19.85-8.44,1.39-12.68,2-3.65.53-7.3,1-11,1.41-2.05.24-4.12.35-6.18.51-4.12.32-8.24.65-12.36.93q-3,.21-6.09.26c-6.19.1-12.38.22-18.57.23-4.15,0-8.3-.08-12.45-.24-4.37-.17-8.75-.39-13.11-.73-5.18-.4-10.37-.83-15.53-1.45a241.24,241.24,0,0,1-34.13-6.23,90.08,90.08,0,0,1-20.51-7.77c-3.37-1.86-6.5-4-8.62-7.38-1.72-2.71-1.54-5.51.68-7.18A24.76,24.76,0,0,1,20.12,14,80.64,80.64,0,0,1,37.36,9C42.64,8,48,7.13,53.31,6.36c3.81-.55,7.65-.88,11.48-1.24Q71.9,4.45,79,3.92c3.85-.29,7.7-.55,11.55-.73,4.62-.21,9.24-.31,13.86-.49,2-.08,4.06-.21,6.09-.32Zm8.15,9.67v-.38c-2.59.12-5.18.2-7.77.36q-7.26.44-14.52,1a71,71,0,0,0-14.51,2.48,33.23,33.23,0,0,0-6.3,2.74,2.25,2.25,0,0,0-1,3.27A9.46,9.46,0,0,0,76,23.62c1.82,2.13,4.36,3.21,6.85,4.26,5.42,2.29,11.18,3.32,16.95,4.19a109.47,109.47,0,0,0,12.84,1.08c4.54.14,9.1,0,13.65-.22,3.64-.17,7.28-.53,10.91-.94a67.26,67.26,0,0,0,15.87-3.6c3.11-1.15,6.14-2.48,8.46-5,1.77-1.94,1.93-4.09.24-5.28a13.66,13.66,0,0,0-2.91-1.62,49.87,49.87,0,0,0-12.48-2.92c-5.09-.56-10.16-1.26-15.27-1.59C127,11.69,122.83,11.9,118.68,11.9Zm36.84,21.45,0-.37c-1.21.09-2.43.14-3.64.27-1.95.2-3.89.55-5.84.64q-8.92.43-17.86.71c-16.58.5-33.09-.22-49.44-3.21A58.24,58.24,0,0,1,64,27.11a19.21,19.21,0,0,1-4.09-2.67c-1.35-1.14-1.39-2.12-.7-3.75a6.09,6.09,0,0,0,.16-1.47c-1.78,1.54-2.13,3.37-1,4.95A8.26,8.26,0,0,0,61,26.6a49.07,49.07,0,0,0,6.85,3.11c5.9,2.07,12.07,3,18.24,3.9a219,219,0,0,0,26.4,2.08,265.25,265.25,0,0,0,33.66-1.19C149.29,34.18,152.4,33.74,155.52,33.35Zm17.62-.24c4.56,0,8.42-1.89,12-4.45a11.47,11.47,0,0,0,2.19-2.19,4.64,4.64,0,0,0,1-3.6c-.21-1.62-.9-2.4-2.33-2.59.11.2.2.37.3.53,1.54,2.31,1.41,4-.56,6a8.87,8.87,0,0,1-2,1.65q-3.22,1.7-6.55,3.2C175.87,32.23,174.49,32.63,173.14,33.11Zm-114.71-4c-.78-.6-1.37-1-1.9-1.47A12,12,0,0,1,55,26.12a3.74,3.74,0,0,1,0-5.23,37.52,37.52,0,0,1,2.85-2.54,3.6,3.6,0,0,0,.54-1l-.54-.41a39.41,39.41,0,0,0-3.78,3.55,4.67,4.67,0,0,0,0,6.18A5.88,5.88,0,0,0,58.43,29.11ZM51.82,15.79a9.12,9.12,0,0,0-2.11.26,18.32,18.32,0,0,0-7.26,4.5,7.71,7.71,0,0,0-1.34,2.1c-.14.31.13.8.22,1.22C43.54,19.22,48,18,51.82,15.79Zm117.05.67c1,.54,1.78,1,2.55,1.43,3.28,2,3.32,3.74.24,6.06a8.58,8.58,0,0,0-1.21,1.4l.4.39a29.73,29.73,0,0,0,3.2-2.59,3,3,0,0,0,0-4.33A5.69,5.69,0,0,0,168.87,16.46Zm8.57,1.69c.65.53,1.26,1,1.81,1.47,1.81,1.66,1.86,3.11.22,4.94l-2.4,2.68c1.84-.82,3.55-1.81,4.35-3.77C182.41,21,180.31,18.14,177.44,18.15Zm12.71,12.27c.44,0,1,.11,1.29-.12A20.89,20.89,0,0,0,194.95,27a7.05,7.05,0,0,0,.82-3.14c.09-.63-.29-1.12-1.14-.95C195.5,26.81,192.45,28.24,190.14,30.42Z" transform="translate(0.52 -0.22)"/><path class="cls-3" d="M252.78,236.62c-1.43-2.52-2.74-5.12-4.32-7.55-2.88-4.44-5.9-8.78-8.89-13.14-2.63-3.84-5.16-7.77-8-11.43-1.78-2.28-2-4.8-2.31-7.44s-.59-5-.88-7.56-.52-4.81-.79-7.21c-.31-2.76-.64-5.51-.93-8.27-.27-2.53-.49-5.06-.75-7.58-.3-2.92-.64-5.83-.93-8.75-.2-2-.34-4-.51-6.06-.31-3.68-.63-7.36-.94-11-.1-1.23-.2-2.46-.26-3.69-.18-3.86-.38-7.72-.48-11.58-.2-7.54-.45-15.08-.44-22.62,0-5.13.38-10.27.7-15.39q.33-5.35,1-10.67c.56-4.8,1.22-9.59,1.88-14.38.7-5.06,1.42-10.12,2.2-15.17.69-4.46,1.45-8.91,2.2-13.36q.77-4.51,1.63-9a16.78,16.78,0,0,1,.79-2.2c.64,1,1.15,1.75,1.58,2.51A114.63,114.63,0,0,1,244.6,47.85a63.62,63.62,0,0,1,3,13.7c.12,1.54.29,3.08.47,4.62.38,3.31-.83,6.34-1.56,9.47-1.45,6.26-3,12.5-4.17,18.81-.87,4.51-1.41,9.08-1.91,13.65-.34,3.16-.41,6.35-.51,9.53-.13,4.11-.27,8.22-.23,12.33,0,4.66.23,9.33.48,14,.23,4.24.57,8.48,1,12.72.32,3.47.77,6.94,1.16,10.4s.76,7.18,1.24,10.75c.56,4.2,1.21,8.39,1.84,12.58.57,3.8,1.14,7.6,1.75,11.39q1.09,6.8,2.26,13.6c.91,5.27,1.85,10.53,2.78,15.8.26,1.48.57,3,.84,4.44.06.32.06.65.09,1Z" transform="translate(0.52 -0.22)"/><path d="M110.61,121.13a63.85,63.85,0,0,1-3.89,22.54,48.64,48.64,0,0,1-8.7,15,32.51,32.51,0,0,1-10.68,8.21A25,25,0,0,1,79.57,169a24.09,24.09,0,0,1-10.37-1,27.93,27.93,0,0,1-10-5.84,44,44,0,0,1-11.13-15.9,62.87,62.87,0,0,1-4.18-14.5A48.66,48.66,0,0,1,43.4,126c-.13-2.3-.3-4.61-.23-6.91A66,66,0,0,1,45.64,103,52.84,52.84,0,0,1,53.22,86.9,33.29,33.29,0,0,1,66,75.73,26.25,26.25,0,0,1,74,73.37a24.17,24.17,0,0,1,14.59,2.76A32,32,0,0,1,99,84.91a50.81,50.81,0,0,1,6.29,10.33,49.44,49.44,0,0,1,4.08,13.3c.62,4.17,1,8.37,1.54,12.55ZM79.7,153.28a70.22,70.22,0,0,1-7.79-2.41A33.42,33.42,0,0,1,57,137.57a43.26,43.26,0,0,1-6.55-19.88,46.29,46.29,0,0,1,.68-13.52,44.06,44.06,0,0,1,6.64-15.93A31.36,31.36,0,0,1,64.21,81c1.16-.9,2.3-1.82,3.71-2.94a7,7,0,0,0-.75.23,31,31,0,0,0-9.64,7.76A46.11,46.11,0,0,0,49,101.91a61.47,61.47,0,0,0-2.91,15.8,57.19,57.19,0,0,0,.76,13.76,76,76,0,0,0,2.85,10.74,40.12,40.12,0,0,0,12.6,18.62,23.43,23.43,0,0,0,12.89,5.43A21,21,0,0,0,86.61,164a31.06,31.06,0,0,0,11.48-10.2c1.76-2.51,3.2-5.23,4.78-7.86l-.34-.24c-1,.8-2.05,1.66-3.14,2.39A34.17,34.17,0,0,1,96,150c-1.14.59-2.34,1.09-3.66,1.69a7.31,7.31,0,0,0-3-7.95,6.8,6.8,0,0,0-7.72.44C79,146.32,78.31,149.11,79.7,153.28Zm15.06-60.1a9.48,9.48,0,1,0-9.43,9.76A9.61,9.61,0,0,0,94.76,93.17ZM73.88,115.9a3,3,0,1,0-2.94,2.87A3,3,0,0,0,73.88,115.9Z" transform="translate(0.52 -0.22)"/><path d="M190.44,123.13A66.77,66.77,0,0,1,185.87,147a48,48,0,0,1-8.22,13.65,32.66,32.66,0,0,1-10.59,8.13,24.61,24.61,0,0,1-7.64,2.14,24,24,0,0,1-14.58-2.74,32.82,32.82,0,0,1-10.38-8.78,51.28,51.28,0,0,1-8.75-16.9,49.91,49.91,0,0,1-2.37-11.83,85.79,85.79,0,0,1-.42-9.74,93.53,93.53,0,0,1,1.46-12,50.53,50.53,0,0,1,5.4-14.94,48.7,48.7,0,0,1,6-8.59,31,31,0,0,1,9.92-7.66,25.74,25.74,0,0,1,8.06-2.36,24.14,24.14,0,0,1,14.58,2.76,32.19,32.19,0,0,1,10.39,8.77,51.29,51.29,0,0,1,8.75,16.9,53.13,53.13,0,0,1,2.38,11.83C190,118.08,190.23,120.6,190.44,123.13Zm-43-43.45c.12,0,0,0,0,0-.48.25-1,.5-1.44.76a32.32,32.32,0,0,0-10.44,9.64,47.09,47.09,0,0,0-7.15,15.22,42.47,42.47,0,0,0-2,10c0,1.43-.68,2.86-.63,4.27.1,2.54-.56,5.11.37,7.66.32.88-.38,1.91.21,3,.41.75.07,1.89.09,2.86a1.48,1.48,0,0,0,.13.57,5,5,0,0,1,.55,1.15,14.5,14.5,0,0,1,0,2,1,1,0,0,0,0,.24A55.93,55.93,0,0,0,134,153.82a36,36,0,0,0,8.38,9.3,23.3,23.3,0,0,0,11.39,4.9,21,21,0,0,0,10.53-1.28,9.35,9.35,0,0,0,3.51-2c1.11-1.11,2.92-1.52,4.06-2.62a51.58,51.58,0,0,0,5.92-6.63c1.87-2.57,3.35-5.42,5-8.15l-.35-.3a30.22,30.22,0,0,1-12.7,6.74,8.68,8.68,0,0,0-.32-7.22,7.24,7.24,0,0,0-5.81-4,6.7,6.7,0,0,0-5.67,2c-2.61,2.6-3,5.76-1.91,9.21a29.62,29.62,0,0,1-14.62-8.89,45.92,45.92,0,0,1-4.64-6.08,41.63,41.63,0,0,1-6.44-19.8A47.36,47.36,0,0,1,132,101.84,40.58,40.58,0,0,1,141.45,85C143.32,83,145.48,81.39,147.43,79.67ZM172,93.74c0-5.24-3.93-9.61-8.78-9.76a9.24,9.24,0,0,0-9.11,7.08,10,10,0,0,0,4.77,11.37C165,105.57,172,100.89,172,93.74Zm-21.6,19.55a2.28,2.28,0,0,0-2-2.42,2.26,2.26,0,0,0-2.09,2.43,2.06,2.06,0,1,0,4.08,0Z" transform="translate(0.52 -0.22)"/><path d="M130.15,169.45a8.84,8.84,0,0,1,.17,1.91c-.47,4.6-.81,9.23-1.58,13.79a13.29,13.29,0,0,1-4.9,8.67c-5.44,4.16-16,3.58-19-5.94a48.36,48.36,0,0,1-1.84-12c-.11-1.83-.18-3.66-.28-5.59Zm-3,8.51a4.52,4.52,0,0,0-.62-.14l-12.32-.49q-3.71-.14-7.42-.24c-.52,0-1.13,0-1.07.76.29,3.38.53,6.77,1.78,10a8.55,8.55,0,0,0,7.76,5.82c4.08.3,7.49-1,9.51-4.84C126.54,185.44,126.93,181.76,127.15,178Z" transform="translate(0.52 -0.22)"/><path d="M215.93,218.42l-.15-1.61.43,0,.15,1.61Z" transform="translate(0.52 -0.22)"/><path d="M217,231.06l.12,1.64-.41,0-.19-1.63Z" transform="translate(0.52 -0.22)"/><path class="cls-4" d="M118.68,11.9c4.15,0,8.31-.21,12.45.05,5.1.32,10.18,1,15.27,1.59a49.87,49.87,0,0,1,12.48,2.92,13.66,13.66,0,0,1,2.91,1.62c1.69,1.19,1.53,3.34-.24,5.28-2.31,2.54-5.35,3.87-8.46,5A67.26,67.26,0,0,1,137.23,32c-3.63.41-7.27.78-10.91.94-4.54.21-9.1.36-13.65.22a109.47,109.47,0,0,1-12.84-1.08c-5.76-.86-11.53-1.89-16.95-4.19-2.49-1.05-5-2.13-6.85-4.26a9.46,9.46,0,0,1-1.46-2.3,2.25,2.25,0,0,1,1-3.27,33.23,33.23,0,0,1,6.3-2.74A71,71,0,0,1,96.4,12.84q7.26-.5,14.52-1c2.59-.16,5.18-.24,7.77-.36Z" transform="translate(0.52 -0.22)"/><path d="M155.52,33.35c-3.12.39-6.23.83-9.35,1.15a265.25,265.25,0,0,1-33.66,1.19,219,219,0,0,1-26.4-2.08c-6.16-.91-12.34-1.83-18.24-3.9A49.07,49.07,0,0,1,61,26.6a8.26,8.26,0,0,1-2.59-2.43c-1.15-1.58-.8-3.41,1-4.95a6.09,6.09,0,0,1-.16,1.47c-.69,1.63-.65,2.61.7,3.75A19.21,19.21,0,0,0,64,27.11a58.24,58.24,0,0,0,14.68,4.28c16.35,3,32.86,3.71,49.44,3.21q8.93-.27,17.86-.71c2-.09,3.89-.44,5.84-.64,1.21-.12,2.43-.18,3.64-.27Z" transform="translate(0.52 -0.22)"/><path d="M173.14,33.11c1.34-.48,2.72-.88,4-1.47q3.32-1.5,6.55-3.2a8.87,8.87,0,0,0,2-1.65c2-2,2.11-3.67.56-6-.1-.16-.19-.33-.3-.53,1.43.19,2.12,1,2.33,2.59a4.64,4.64,0,0,1-1,3.6,11.47,11.47,0,0,1-2.19,2.19C181.57,31.22,177.71,33.11,173.14,33.11Z" transform="translate(0.52 -0.22)"/><path d="M58.43,29.11a5.88,5.88,0,0,1-4.31-2.46,4.67,4.67,0,0,1,0-6.18,39.41,39.41,0,0,1,3.78-3.55l.54.41a3.6,3.6,0,0,1-.54,1A37.52,37.52,0,0,0,55,20.88a3.74,3.74,0,0,0,0,5.23,12,12,0,0,0,1.52,1.52C57.06,28.11,57.65,28.51,58.43,29.11Z" transform="translate(0.52 -0.22)"/><path d="M51.82,15.79C48,18,43.54,19.22,41.33,23.87c-.08-.41-.36-.91-.22-1.22a7.71,7.71,0,0,1,1.34-2.1,18.32,18.32,0,0,1,7.26-4.5A9.12,9.12,0,0,1,51.82,15.79Z" transform="translate(0.52 -0.22)"/><path d="M168.87,16.46a5.69,5.69,0,0,1,5.21,2.36,3,3,0,0,1,0,4.33,29.73,29.73,0,0,1-3.2,2.59l-.4-.39a8.58,8.58,0,0,1,1.21-1.4c3.08-2.32,3-4-.24-6.06C170.65,17.42,169.84,17,168.87,16.46Z" transform="translate(0.52 -0.22)"/><path d="M177.44,18.15c2.87,0,5,2.86,4,5.31-.8,2-2.5,3-4.35,3.77l2.4-2.68c1.65-1.83,1.6-3.28-.22-4.94C178.7,19.11,178.09,18.68,177.44,18.15Z" transform="translate(0.52 -0.22)"/><path d="M190.14,30.42c2.3-2.18,5.36-3.61,4.49-7.55.84-.17,1.22.32,1.14.95a7.05,7.05,0,0,1-.82,3.14,20.89,20.89,0,0,1-3.51,3.34C191.16,30.52,190.58,30.38,190.14,30.42Z" transform="translate(0.52 -0.22)"/><path class="cls-5" d="M79.7,153.28c-1.39-4.17-.72-7,1.93-9.08a6.8,6.8,0,0,1,7.72-.44,7.31,7.31,0,0,1,3,7.95c1.32-.6,2.51-1.1,3.66-1.69a34.17,34.17,0,0,0,3.35-1.95c1.09-.73,2.1-1.59,3.14-2.39l.34.24c-1.58,2.63-3,5.35-4.78,7.86A31.06,31.06,0,0,1,86.61,164a21,21,0,0,1-11.43,2.27,23.43,23.43,0,0,1-12.89-5.43,40.12,40.12,0,0,1-12.6-18.62,76,76,0,0,1-2.85-10.74,57.19,57.19,0,0,1-.76-13.76A61.47,61.47,0,0,1,49,101.91a46.11,46.11,0,0,1,8.56-15.82,31,31,0,0,1,9.64-7.76,7,7,0,0,1,.75-.23c-1.4,1.11-2.55,2-3.71,2.94a31.36,31.36,0,0,0-6.47,7.19,44.06,44.06,0,0,0-6.64,15.93,46.29,46.29,0,0,0-.68,13.52A43.26,43.26,0,0,0,57,137.57a33.42,33.42,0,0,0,14.94,13.3A70.22,70.22,0,0,0,79.7,153.28Z" transform="translate(0.52 -0.22)"/><path class="cls-5" d="M94.76,93.17a9.48,9.48,0,1,1-9.52-9.68A9.59,9.59,0,0,1,94.76,93.17Z" transform="translate(0.52 -0.22)"/><path class="cls-5" d="M73.88,115.9A3,3,0,1,1,70.82,113,2.95,2.95,0,0,1,73.88,115.9Z" transform="translate(0.52 -0.22)"/><path class="cls-5" d="M147.43,79.67c-2,1.71-4.12,3.36-6,5.3A40.58,40.58,0,0,0,132,101.84,47.36,47.36,0,0,0,130.33,119a41.63,41.63,0,0,0,6.44,19.8,45.92,45.92,0,0,0,4.64,6.08A29.62,29.62,0,0,0,156,153.75c-1.11-3.44-.69-6.61,1.91-9.21a6.7,6.7,0,0,1,5.67-2,7.24,7.24,0,0,1,5.81,4,8.68,8.68,0,0,1,.32,7.22,30.22,30.22,0,0,0,12.7-6.74l.35.3c-1.65,2.73-3.13,5.58-5,8.15a51.58,51.58,0,0,1-5.92,6.63c-1.14,1.1-2.94,1.5-4.06,2.62a9.35,9.35,0,0,1-3.51,2A21,21,0,0,1,153.78,168a23.3,23.3,0,0,1-11.39-4.9,36,36,0,0,1-8.38-9.3,55.93,55.93,0,0,1-6.83-16.76,1,1,0,0,1,0-.24,14.5,14.5,0,0,0,0-2,5,5,0,0,0-.55-1.15,1.48,1.48,0,0,1-.13-.57c0-1,.32-2.11-.09-2.86-.59-1.09.11-2.13-.21-3-.93-2.54-.27-5.11-.37-7.66-.06-1.41.58-2.84.63-4.27a42.47,42.47,0,0,1,2-10,47.09,47.09,0,0,1,7.15-15.22A32.32,32.32,0,0,1,146,80.43c.48-.26,1-.52,1.44-.76C147.46,79.65,147.55,79.71,147.43,79.67Z" transform="translate(0.52 -0.22)"/><path class="cls-5" d="M172,93.74c0,7.15-7.08,11.84-13.13,8.69a10,10,0,0,1-4.77-11.37A9.24,9.24,0,0,1,163.26,84C168.11,84.13,172,88.5,172,93.74Z" transform="translate(0.52 -0.22)"/><path class="cls-5" d="M150.44,113.28a2.07,2.07,0,1,1-2-2.42A2.28,2.28,0,0,1,150.44,113.28Z" transform="translate(0.52 -0.22)"/><path class="cls-6" d="M116.52,172.18s11.48,0,11.8,0c-.22,3.81-1.77,13.23-3.55,16.59-2,3.81-5.42,5.14-9.51,4.84a8.55,8.55,0,0,1-7.76-5.82c-1.25-3.2-1.49-6.59-1.78-10-.07-.8-.42-4.23-.36-5.5" transform="translate(0.52 -0.22)"/></svg>